<svg width="24" height="24" viewBox="0 0 24 24" fill="none" xmlns="http://www.w3.org/2000/svg">
<path d="M12.7101 6.29006L17.7101 11.2901C17.8011 11.3852 17.8725 11.4973 17.9201 11.6201C18.0201 11.8635 18.0201 12.1366 17.9201 12.3801C17.8725 12.5028 17.8011 12.615 17.7101 12.7101L12.7101 17.7101C12.6169 17.8033 12.5062 17.8773 12.3844 17.9277C12.2625 17.9782 12.132 18.0042 12.0001 18.0042C11.7338 18.0042 11.4784 17.8984 11.2901 17.7101C11.1018 17.5218 10.996 17.2664 10.996 17.0001C10.996 16.7338 11.1018 16.4784 11.2901 16.2901L14.5901 13.0001H7.0001C6.73489 13.0001 6.48053 12.8947 6.293 12.7072C6.10546 12.5196 6.0001 12.2653 6.0001 12.0001C6.0001 11.7348 6.10546 11.4805 6.293 11.293C6.48053 11.1054 6.73489 11.0001 7.0001 11.0001H14.5901L11.2901 7.71006C11.1964 7.61709 11.122 7.5065 11.0712 7.38464C11.0204 7.26278 10.9943 7.13207 10.9943 7.00006C10.9943 6.86805 11.0204 6.73734 11.0712 6.61548C11.122 6.49362 11.1964 6.38302 11.2901 6.29006C11.3831 6.19633 11.4937 6.12194 11.6155 6.07117C11.7374 6.0204 11.8681 5.99426 12.0001 5.99426C12.1321 5.99426 12.2628 6.0204 12.3847 6.07117C12.5065 6.12194 12.6171 6.19633 12.7101 6.29006Z" fill="white"/>
</svg>
