<svg width="300" height="300" viewBox="0 0 300 300" fill="none" xmlns="http://www.w3.org/2000/svg">
<rect width="300" height="300" rx="150" fill="#1D1D1F"/>
<path d="M42.1629 145.862C39.7979 145.862 37.7093 145.457 35.8972 144.646C34.085 143.804 32.6568 142.62 31.6125 141.092C30.5682 139.533 30.0307 137.646 30 135.432H36.2197C36.2811 136.96 36.8186 138.254 37.8322 139.314C38.8765 140.343 40.3047 140.858 42.1168 140.858C43.6833 140.858 44.9272 140.484 45.8486 139.735C46.7701 138.956 47.2308 137.927 47.2308 136.648C47.2308 135.308 46.8161 134.263 45.9868 133.515C45.1883 132.766 44.1133 132.158 42.7618 131.691C41.4104 131.223 39.9668 130.724 38.4311 130.194C35.9432 129.321 34.0389 128.198 32.7182 126.826C31.4282 125.455 30.7832 123.63 30.7832 121.354C30.7525 119.421 31.1979 117.768 32.1193 116.397C33.0714 114.993 34.3614 113.918 35.9893 113.169C37.6172 112.39 39.4907 112 41.61 112C43.76 112 45.649 112.39 47.2768 113.169C48.9354 113.949 50.2254 115.04 51.1469 116.443C52.099 117.846 52.6058 119.515 52.6672 121.448H46.3554C46.3247 120.294 45.8793 119.281 45.0193 118.408C44.19 117.503 43.0229 117.051 41.5179 117.051C40.2279 117.02 39.1375 117.348 38.2468 118.033C37.3868 118.688 36.9568 119.655 36.9568 120.933C36.9568 122.025 37.2947 122.898 37.9704 123.553C38.6461 124.176 39.5675 124.706 40.7347 125.143C41.9018 125.579 43.2379 126.047 44.7429 126.546C46.3401 127.107 47.799 127.762 49.1197 128.51C50.4404 129.259 51.5001 130.256 52.2986 131.504C53.0972 132.72 53.4965 134.294 53.4965 136.228C53.4965 137.942 53.0665 139.533 52.2065 140.998C51.3465 142.464 50.0719 143.649 48.3826 144.553C46.6933 145.426 44.62 145.862 42.1629 145.862Z" fill="#F1BF42"/>
<path d="M244.825 188.19V154.328H250.663V168.018L262.475 154.328H269.681L257.914 167.776L270 188.19H262.84L253.718 172.517L250.663 176.048V188.19H244.825Z" fill="#F1BF42"/>
<path d="M226.778 188.19C224.413 188.19 222.325 187.785 220.513 186.974C218.7 186.132 217.272 184.948 216.228 183.42C215.184 181.861 214.646 179.974 214.615 177.76H220.835C220.896 179.288 221.434 180.582 222.448 181.642C223.492 182.671 224.92 183.186 226.732 183.186C228.299 183.186 229.543 182.812 230.464 182.063C231.385 181.284 231.846 180.255 231.846 178.976C231.846 177.636 231.432 176.591 230.602 175.843C229.804 175.094 228.729 174.486 227.377 174.019C226.026 173.551 224.582 173.052 223.046 172.522C220.559 171.649 218.654 170.526 217.334 169.155C216.044 167.783 215.399 165.958 215.399 163.682C215.368 161.749 215.813 160.096 216.735 158.725C217.687 157.321 218.977 156.246 220.605 155.497C222.233 154.718 224.106 154.328 226.225 154.328C228.375 154.328 230.264 154.718 231.892 155.497C233.551 156.277 234.841 157.368 235.762 158.771C236.714 160.174 237.221 161.843 237.283 163.776H230.971C230.94 162.622 230.495 161.609 229.635 160.736C228.805 159.831 227.638 159.379 226.133 159.379C224.843 159.348 223.753 159.676 222.862 160.362C222.002 161.016 221.572 161.983 221.572 163.261C221.572 164.353 221.91 165.226 222.586 165.881C223.261 166.504 224.183 167.034 225.35 167.471C226.517 167.907 227.853 168.375 229.358 168.874C230.955 169.435 232.414 170.09 233.735 170.838C235.056 171.587 236.115 172.584 236.914 173.832C237.713 175.048 238.112 176.622 238.112 178.556C238.112 180.27 237.682 181.861 236.822 183.326C235.962 184.792 234.687 185.977 232.998 186.881C231.309 187.754 229.235 188.19 226.778 188.19Z" fill="#F1BF42"/>
<path d="M187.762 188.19V154.328H207.902V159.311H193.403V168.599H206.58V173.436H193.403V183.208H207.902V188.19H187.762Z" fill="#F1BF42"/>
<path d="M118.951 145.862V112H124.827L139.929 135.849V112H145.804V145.862H139.929L124.827 122.062V145.862H118.951Z" fill="#F1BF42"/>
<path d="M83.7063 145.862L95.4955 112H102.127L113.916 145.862H107.653L105.074 138.026H92.5021L89.8772 145.862H83.7063ZM94.1139 133.188H103.462L98.7651 119.111L94.1139 133.188Z" fill="#F1BF42"/>
<path fill-rule="evenodd" clip-rule="evenodd" d="M165.944 117.757H159.902V182.434H165.944C171.135 182.434 175.343 178.189 175.343 172.952V127.238C175.343 122.002 171.135 117.757 165.944 117.757ZM154.196 112V188.19H165.944C174.286 188.19 181.049 181.368 181.049 172.952V127.238C181.049 118.822 174.286 112 165.944 112H154.196Z" fill="#F1BF42"/>
<path d="M58.5315 112H82.028V117.079H58.5315V112Z" fill="#F1BF42"/>
<path d="M67.7622 117.079H72.7972V188.19H67.7622V117.079Z" fill="#F1BF42"/>
</svg>
